<?xml version="1.0" standalone="no"?>
<!DOCTYPE svg PUBLIC "-//W3C//DTD SVG 20010904//EN"
 "http://www.w3.org/TR/2001/REC-SVG-20010904/DTD/svg10.dtd">
<svg version="1.0" xmlns="http://www.w3.org/2000/svg"
 width="300.000000pt" height="300.000000pt" viewBox="0 0 300.000000 300.000000"
 preserveAspectRatio="xMidYMid meet">
<metadata>
Created by potrace 1.11, written by Peter Selinger 2001-2013
</metadata>
<g transform="translate(0.000000,300.000000) scale(0.100000,-0.100000)"
fill="#000000" stroke="none">
<path d="M1927 2393 c-4 -3 -7 -187 -7 -408 0 -373 1 -404 18 -426 10 -13 70
-105 133 -204 l114 -179 3 599 c1 330 0 606 -3 613 -3 9 -38 12 -128 12 -68 0
-127 -3 -130 -7z"/>
<path d="M830 1490 l0 -900 130 0 130 0 0 635 c0 349 3 635 8 635 4 -1 122
-188 262 -418 140 -229 315 -514 389 -634 l133 -218 144 0 c79 0 144 2 144 5
0 3 -49 85 -109 183 -198 324 -833 1365 -908 1490 l-74 122 -125 0 -124 0 0
-900z"/>
</g>
</svg>
